<svg width="73" height="73" viewBox="0 0 73 73" fill="none" xmlns="http://www.w3.org/2000/svg">
<circle cx="36.4252" cy="36.5" r="36.4252" fill="url(#paint0_linear_1_471)"/>
<path d="M34.2686 25.8245C34.7696 25.8245 35.1991 26.0035 35.557 26.3613C35.8433 26.7192 35.9864 27.1487 35.9864 27.6497C35.9864 28.2224 35.879 28.795 35.6643 29.3676L29.9739 44.0767C29.616 44.7925 29.2581 45.3651 28.9003 45.7946C28.4708 46.2956 27.7908 46.5462 26.8603 46.5462L23.3172 46.5462C22.7446 46.5462 22.3151 46.3314 22.0288 45.902C21.6709 45.4725 21.5636 44.8999 21.7067 44.1841L24.0688 28.9381C24.1404 28.0792 24.4267 27.3276 24.9277 26.6834C25.4288 26.1108 26.1803 25.8245 27.1824 25.8245L34.2686 25.8245ZM51.4471 25.8245C51.9482 25.8245 52.3776 26.0035 52.7355 26.3613C53.0218 26.7192 53.165 27.1487 53.165 27.6497C53.165 28.2224 53.0576 28.795 52.8429 29.3676L47.1525 44.0767C46.7946 44.7925 46.4009 45.3651 45.9714 45.7946C45.542 46.2956 44.8978 46.5462 44.0389 46.5462H40.4958C39.9232 46.5462 39.4937 46.3314 39.2074 45.902C38.8495 45.4725 38.7421 44.8999 38.8853 44.1841L41.2473 28.9381C41.3189 28.0792 41.6052 27.3276 42.1063 26.6834C42.6073 26.1108 43.3231 25.8245 44.2536 25.8245L51.4471 25.8245Z" fill="#091242"/>
<defs>
<linearGradient id="paint0_linear_1_471" x1="-2.06535" y1="15.859" x2="89.5811" y2="22.3673" gradientUnits="userSpaceOnUse">
<stop stop-color="#FFB629"/>
<stop offset="0.507189" stop-color="#FFDA56"/>
<stop offset="1" stop-color="#FFD7A6"/>
</linearGradient>
</defs>
</svg>
