<svg width="152" height="63" viewBox="0 0 152 63" fill="none" xmlns="http://www.w3.org/2000/svg">
<rect width="61.6392" height="151.271" transform="translate(0.729248 62.1104) rotate(-90)" fill="url(#paint0_linear_1_294)"/>
<path d="M39.3385 22.5841C38.5302 22.9351 37.675 23.1663 36.7998 23.2705C37.7195 22.7323 38.4112 21.8774 38.745 20.866C37.8755 21.374 36.9258 21.7305 35.9366 21.9202C35.52 21.4839 35.019 21.1369 34.4641 20.9001C33.9091 20.6634 33.3118 20.5419 32.7084 20.543C30.2653 20.543 28.2883 22.4899 28.2883 24.8899C28.2866 25.2237 28.3248 25.5566 28.4023 25.8813C26.6505 25.7993 24.9351 25.3527 23.3659 24.5702C21.7967 23.7877 20.4082 22.6865 19.2892 21.337C18.8967 21.9983 18.6891 22.7528 18.6881 23.5217C18.6881 25.029 19.4751 26.3613 20.6634 27.1419C19.9593 27.1252 19.2697 26.939 18.6531 26.5991V26.6529C18.6531 28.7613 20.1794 30.5154 22.1996 30.9146C21.8197 31.0158 21.4282 31.0671 21.0351 31.0671C20.7561 31.0676 20.4778 31.0406 20.2041 30.9864C20.7657 32.7135 22.4003 33.9696 24.3364 34.0055C22.7632 35.2171 20.8316 35.872 18.8452 35.8672C18.4927 35.8666 18.1404 35.8457 17.7903 35.8044C19.811 37.0937 22.1598 37.7757 24.5573 37.7692C32.6989 37.7692 37.1469 31.1434 37.1469 25.3968C37.1469 25.2084 37.1419 25.02 37.1329 24.8361C37.9963 24.2224 38.7431 23.4598 39.3385 22.5841Z" fill="#1C1F35"/>
<path fill-rule="evenodd" clip-rule="evenodd" d="M87.511 31.3532C87.511 25.3835 82.3432 20.543 75.9697 20.543C69.5962 20.543 64.4283 25.3835 64.4283 31.3532C64.4283 36.7487 68.6481 41.221 74.1663 42.0327L74.1663 34.4791L71.2351 34.4791V31.3532L74.1663 31.3532V28.9716C74.1663 26.2628 75.8898 24.7653 78.5258 24.7653C79.7886 24.7653 81.1097 24.9766 81.1097 24.9766V27.6372L79.6536 27.6372C78.2207 27.6372 77.7725 28.4702 77.7725 29.3263V31.3532L80.9731 31.3532L80.462 34.4791L77.773 34.4791L77.773 42.0337C83.2912 41.2224 87.511 36.7502 87.511 31.3532Z" fill="#1C1F35"/>
<path d="M128.424 22.3341C129.657 22.3376 130.838 22.8106 131.71 23.6497C132.582 24.4889 133.074 25.6259 133.078 26.8126L133.078 35.7687C133.074 36.9554 132.582 38.0925 131.71 38.9316C130.838 39.7708 129.657 40.2437 128.424 40.2473L119.116 40.2473C117.883 40.2437 116.701 39.7708 115.829 38.9316C114.957 38.0925 114.466 36.9554 114.462 35.7687V26.8126C114.466 25.6259 114.957 24.4889 115.829 23.6497C116.701 22.8106 117.883 22.3376 119.116 22.3341L128.424 22.3341ZM128.424 20.543L119.116 20.543C115.533 20.543 112.601 23.3642 112.601 26.8126V35.7687C112.601 39.2171 115.533 42.0384 119.116 42.0384L128.424 42.0384C132.007 42.0384 134.939 39.2171 134.939 35.7687L134.939 26.8126C134.939 23.3642 132.007 20.543 128.424 20.543Z" fill="#1C1F35"/>
<path d="M129.82 26.813C129.544 26.813 129.274 26.7342 129.044 26.5866C128.814 26.439 128.636 26.2292 128.53 25.9837C128.424 25.7382 128.397 25.4681 128.45 25.2075C128.504 24.9469 128.637 24.7075 128.832 24.5196C129.028 24.3317 129.277 24.2038 129.547 24.1519C129.818 24.1001 130.099 24.1267 130.354 24.2284C130.609 24.33 130.827 24.5022 130.981 24.7232C131.134 24.9441 131.216 25.2039 131.216 25.4696C131.216 25.6461 131.18 25.821 131.11 25.9841C131.04 26.1473 130.938 26.2956 130.808 26.4204C130.678 26.5452 130.524 26.6442 130.354 26.7115C130.185 26.7789 130.003 26.8134 129.82 26.813ZM123.77 27.7084C124.506 27.7084 125.226 27.9185 125.838 28.3122C126.451 28.7058 126.928 29.2654 127.21 29.92C127.492 30.5747 127.565 31.2951 127.422 31.99C127.278 32.685 126.923 33.3234 126.403 33.8245C125.882 34.3255 125.219 34.6667 124.496 34.805C123.774 34.9432 123.025 34.8723 122.345 34.6011C121.665 34.3299 121.083 33.8707 120.674 33.2815C120.265 32.6924 120.047 31.9997 120.047 31.2911C120.048 30.3412 120.44 29.4305 121.138 28.7588C121.836 28.0872 122.783 27.7094 123.77 27.7084ZM123.77 25.9172C122.665 25.9172 121.586 26.2324 120.667 26.8229C119.749 27.4134 119.033 28.2527 118.611 29.2346C118.188 30.2165 118.077 31.297 118.293 32.3395C118.508 33.3819 119.04 34.3394 119.821 35.091C120.602 35.8425 121.597 36.3543 122.68 36.5617C123.764 36.769 124.887 36.6626 125.907 36.2559C126.928 35.8491 127.8 35.1604 128.413 34.2766C129.027 33.3929 129.354 32.3539 129.354 31.2911C129.354 29.8658 128.766 28.499 127.719 27.4912C126.672 26.4834 125.251 25.9172 123.77 25.9172Z" fill="#1C1F35"/>
<defs>
<linearGradient id="paint0_linear_1_294" x1="-1.7475" y1="32.7753" x2="76.1209" y2="35.0286" gradientUnits="userSpaceOnUse">
<stop stop-color="#FFB629"/>
<stop offset="0.507189" stop-color="#FFDA56"/>
<stop offset="1" stop-color="#FFD7A6"/>
</linearGradient>
</defs>
</svg>
