<svg width="152" height="63" viewBox="0 0 152 63" fill="none" xmlns="http://www.w3.org/2000/svg">
<rect width="61.6392" height="151.271" transform="translate(0.889404 62.1104) rotate(-90)" fill="url(#paint0_linear_1_315)"/>
<path d="M37.9609 20.543L19.8089 20.543C18.817 20.543 17.9504 21.2566 17.9504 22.2368L17.9504 40.4291C17.9504 41.4146 18.817 42.2929 19.8089 42.2929L37.9555 42.2929C38.9527 42.2929 39.7004 41.4088 39.7004 40.4291L39.7004 22.2368C39.7062 21.2566 38.9527 20.543 37.9609 20.543ZM24.6924 38.6726L21.5766 38.6726L21.5766 28.9847L24.6924 28.9847L24.6924 38.6726ZM23.2423 27.5117H23.2199C22.2227 27.5117 21.577 26.7694 21.577 25.8401C21.577 24.8939 22.2397 24.1691 23.2593 24.1691C24.2788 24.1691 24.9026 24.8886 24.925 25.8401C24.9245 26.7694 24.2788 27.5117 23.2423 27.5117ZM36.0801 38.6726L32.9642 38.6726L32.9642 33.3754C32.9642 32.1064 32.5108 31.2393 31.3834 31.2393C30.5222 31.2393 30.0124 31.8219 29.7857 32.3894C29.7007 32.5933 29.6779 32.871 29.6779 33.1545L29.6779 38.6726H26.5621L26.5621 28.9847L29.6779 28.9847L29.6779 30.3329C30.1314 29.6872 30.8397 28.7579 32.4879 28.7579C34.5333 28.7579 36.0806 30.1061 36.0806 33.0128L36.0801 38.6726Z" fill="#1C1F35"/>
<path d="M86.3385 22.5841C85.5302 22.9351 84.675 23.1663 83.7998 23.2705C84.7195 22.7323 85.4112 21.8774 85.745 20.866C84.8755 21.374 83.9258 21.7305 82.9366 21.9202C82.52 21.4839 82.019 21.1369 81.4641 20.9001C80.9091 20.6634 80.3118 20.5419 79.7084 20.543C77.2653 20.543 75.2883 22.4899 75.2883 24.8899C75.2866 25.2237 75.3248 25.5566 75.4023 25.8813C73.6505 25.7993 71.9351 25.3527 70.3659 24.5702C68.7967 23.7877 67.4082 22.6865 66.2892 21.337C65.8967 21.9983 65.6891 22.7528 65.6881 23.5217C65.6881 25.029 66.4751 26.3613 67.6634 27.1419C66.9593 27.1252 66.2697 26.939 65.6531 26.5991V26.6529C65.6531 28.7613 67.1794 30.5154 69.1996 30.9146C68.8197 31.0158 68.4282 31.0671 68.0351 31.0671C67.7561 31.0676 67.4778 31.0406 67.2041 30.9864C67.7657 32.7135 69.4003 33.9696 71.3364 34.0055C69.7632 35.2171 67.8316 35.872 65.8452 35.8672C65.4927 35.8666 65.1404 35.8457 64.7903 35.8044C66.811 37.0937 69.1598 37.7757 71.5573 37.7692C79.6989 37.7692 84.1469 31.1434 84.1469 25.3968C84.1469 25.2084 84.1419 25.02 84.1329 24.8361C84.9963 24.2224 85.7431 23.4598 86.3385 22.5841Z" fill="#1C1F35"/>
<path fill-rule="evenodd" clip-rule="evenodd" d="M134.511 31.3532C134.511 25.3835 129.343 20.543 122.97 20.543C116.596 20.543 111.428 25.3835 111.428 31.3532C111.428 36.7487 115.648 41.221 121.166 42.0327L121.166 34.4791L118.235 34.4791V31.3532L121.166 31.3532V28.9716C121.166 26.2628 122.89 24.7653 125.526 24.7653C126.788 24.7653 128.11 24.9766 128.11 24.9766V27.6372L126.653 27.6372C125.221 27.6372 124.772 28.4702 124.772 29.3263V31.3532L127.973 31.3532L127.462 34.4791L124.773 34.4791L124.773 42.0337C130.291 41.2224 134.511 36.7502 134.511 31.3532Z" fill="#1C1F35"/>
<path d="M175.423 22.3341C176.657 22.3376 177.838 22.8106 178.71 23.6497C179.582 24.4889 180.074 25.6259 180.077 26.8126L180.077 35.7687C180.074 36.9554 179.582 38.0925 178.71 38.9316C177.838 39.7708 176.657 40.2437 175.423 40.2473L166.116 40.2473C164.883 40.2437 163.701 39.7708 162.829 38.9316C161.957 38.0925 161.466 36.9554 161.462 35.7687V26.8126C161.466 25.6259 161.957 24.4889 162.829 23.6497C163.701 22.8106 164.883 22.3376 166.116 22.3341L175.423 22.3341ZM175.423 20.543L166.116 20.543C162.533 20.543 159.601 23.3642 159.601 26.8126L159.601 35.7687C159.601 39.2171 162.533 42.0384 166.116 42.0384L175.423 42.0384C179.007 42.0384 181.939 39.2171 181.939 35.7687L181.939 26.8126C181.939 23.3642 179.007 20.543 175.423 20.543Z" fill="#1C1F35"/>
<path d="M176.82 26.813C176.543 26.813 176.274 26.7342 176.044 26.5866C175.814 26.439 175.635 26.2292 175.53 25.9837C175.424 25.7382 175.396 25.4681 175.45 25.2075C175.504 24.9469 175.637 24.7075 175.832 24.5196C176.028 24.3317 176.276 24.2038 176.547 24.1519C176.818 24.1001 177.099 24.1267 177.354 24.2284C177.609 24.33 177.827 24.5022 177.98 24.7232C178.134 24.9441 178.216 25.2039 178.216 25.4696C178.216 25.6461 178.18 25.821 178.11 25.9841C178.04 26.1473 177.937 26.2956 177.808 26.4204C177.678 26.5452 177.524 26.6442 177.354 26.7115C177.185 26.7789 177.003 26.8134 176.82 26.813ZM170.77 27.7084C171.506 27.7084 172.226 27.9185 172.838 28.3122C173.451 28.7058 173.928 29.2654 174.21 29.92C174.491 30.5747 174.565 31.2951 174.421 31.99C174.278 32.685 173.923 33.3234 173.403 33.8245C172.882 34.3255 172.218 34.6667 171.496 34.805C170.774 34.9432 170.025 34.8723 169.345 34.6011C168.665 34.3299 168.083 33.8707 167.674 33.2815C167.265 32.6924 167.047 31.9997 167.047 31.2911C167.048 30.3412 167.44 29.4305 168.138 28.7588C168.836 28.0872 169.783 27.7094 170.77 27.7084ZM170.77 25.9172C169.665 25.9172 168.586 26.2324 167.667 26.8229C166.749 27.4134 166.033 28.2527 165.61 29.2346C165.188 30.2165 165.077 31.297 165.293 32.3395C165.508 33.3819 166.04 34.3394 166.821 35.091C167.602 35.8425 168.597 36.3543 169.68 36.5617C170.764 36.769 171.887 36.6626 172.907 36.2559C173.927 35.8491 174.8 35.1604 175.413 34.2766C176.027 33.3929 176.354 32.3539 176.354 31.2911C176.354 29.8658 175.766 28.499 174.719 27.4912C173.671 26.4834 172.251 25.9172 170.77 25.9172Z" fill="#1C1F35"/>
<defs>
<linearGradient id="paint0_linear_1_315" x1="-1.7475" y1="42.9239" x2="76.1481" y2="44.645" gradientUnits="userSpaceOnUse">
<stop stop-color="#FFB629"/>
<stop offset="0.507189" stop-color="#FFDA56"/>
<stop offset="1" stop-color="#FFD7A6"/>
</linearGradient>
</defs>
</svg>
