<svg width="105" height="63" viewBox="0 0 105 63" fill="none" xmlns="http://www.w3.org/2000/svg">
<rect width="61.6392" height="104.633" transform="translate(0.367188 62.1104) rotate(-90)" fill="url(#paint0_linear_1_338)"/>
<path fill-rule="evenodd" clip-rule="evenodd" d="M40.5109 31.3532C40.5109 25.3835 35.343 20.543 28.9695 20.543C22.5961 20.543 17.4282 25.3835 17.4282 31.3532C17.4282 36.7487 21.648 41.221 27.1662 42.0327L27.1662 34.4791H24.235L24.235 31.3532L27.1662 31.3532V28.9716C27.1662 26.2628 28.8897 24.7653 31.5256 24.7653C32.7885 24.7653 34.1096 24.9766 34.1096 24.9766L34.1096 27.6372H32.6535C31.2206 27.6372 30.7724 28.4702 30.7724 29.3263V31.3532L33.973 31.3532L33.4619 34.4791H30.7729L30.7729 42.0337C36.2911 41.2225 40.5109 36.7502 40.5109 31.3532V31.3532Z" fill="#1C1F35"/>
<path d="M81.4233 22.3341C82.6565 22.3376 83.8381 22.8106 84.7101 23.6497C85.5822 24.4889 86.0737 25.6259 86.0774 26.8126L86.0774 35.7687C86.0737 36.9554 85.5822 38.0925 84.7101 38.9316C83.8381 39.7708 82.6565 40.2437 81.4233 40.2473L72.116 40.2473C70.8828 40.2437 69.7012 39.7708 68.8292 38.9316C67.9571 38.0925 67.4656 36.9554 67.4619 35.7687L67.4619 26.8126C67.4656 25.6259 67.9571 24.4889 68.8292 23.6497C69.7012 22.8106 70.8828 22.3376 72.116 22.3341L81.4233 22.3341V22.3341ZM81.4233 20.543L72.116 20.543C68.5325 20.543 65.6006 23.3642 65.6006 26.8126V35.7687C65.6006 39.2171 68.5325 42.0384 72.116 42.0384L81.4233 42.0384C85.0068 42.0384 87.9387 39.2171 87.9387 35.7687V26.8126C87.9387 23.3642 85.0068 20.543 81.4233 20.543V20.543Z" fill="#1C1F35"/>
<path d="M82.8193 26.813C82.5432 26.813 82.2733 26.7342 82.0437 26.5866C81.8141 26.439 81.6351 26.2292 81.5295 25.9837C81.4238 25.7382 81.3962 25.4681 81.45 25.2075C81.5039 24.9469 81.6369 24.7075 81.8321 24.5196C82.0274 24.3317 82.2761 24.2038 82.547 24.1519C82.8178 24.1001 83.0985 24.1267 83.3536 24.2284C83.6087 24.33 83.8268 24.5022 83.9802 24.7232C84.1336 24.9441 84.2155 25.2039 84.2155 25.4696C84.2159 25.6461 84.18 25.821 84.11 25.9841C84.04 26.1473 83.9372 26.2956 83.8074 26.4204C83.6777 26.5452 83.5236 26.6442 83.3541 26.7115C83.1845 26.7789 83.0028 26.8134 82.8193 26.813V26.813ZM76.7696 27.7084C77.506 27.7084 78.2258 27.9185 78.8381 28.3122C79.4504 28.7058 79.9276 29.2654 80.2094 29.92C80.4912 30.5747 80.5649 31.2951 80.4212 31.99C80.2776 32.685 79.923 33.3234 79.4023 33.8245C78.8816 34.3255 78.2182 34.6667 77.496 34.805C76.7737 34.9432 76.0251 34.8723 75.3448 34.6011C74.6645 34.3299 74.083 33.8707 73.6739 33.2815C73.2648 32.6924 73.0464 31.9997 73.0464 31.2911C73.0475 30.3412 73.4401 29.4305 74.1381 28.7588C74.8361 28.0872 75.7825 27.7094 76.7696 27.7084V27.7084ZM76.7696 25.9172C75.6651 25.9172 74.5854 26.2324 73.667 26.8229C72.7486 27.4134 72.0328 28.2527 71.6102 29.2346C71.1875 30.2165 71.0769 31.297 71.2924 32.3395C71.5078 33.3819 72.0397 34.3394 72.8207 35.091C73.6017 35.8425 74.5968 36.3543 75.6801 36.5617C76.7634 36.769 77.8863 36.6626 78.9067 36.2559C79.9271 35.8491 80.7993 35.1604 81.413 34.2766C82.0266 33.3929 82.3541 32.3539 82.3541 31.2911C82.3541 29.8658 81.7658 28.499 80.7185 27.4912C79.6712 26.4834 78.2507 25.9172 76.7696 25.9172V25.9172Z" fill="#1C1F35"/>
<defs>
<linearGradient id="paint0_linear_1_338" x1="-1.7475" y1="22.6704" x2="76.05" y2="25.925" gradientUnits="userSpaceOnUse">
<stop stop-color="#FFB629"/>
<stop offset="0.507189" stop-color="#FFDA56"/>
<stop offset="1" stop-color="#FFD7A6"/>
</linearGradient>
</defs>
</svg>
