<svg width="211" height="36" viewBox="0 0 211 36" fill="none" xmlns="http://www.w3.org/2000/svg">
<path d="M44.7204 28C44.5004 28 44.3204 27.93 44.1804 27.79C44.0404 27.65 43.9704 27.47 43.9704 27.25V11.17H38.5104C38.3104 11.17 38.1404 11.1 38.0004 10.96C37.8604 10.82 37.7904 10.65 37.7904 10.45V7.75C37.7904 7.53 37.8604 7.35 38.0004 7.21C38.1404 7.07 38.3104 7 38.5104 7H54.2304C54.4504 7 54.6304 7.07 54.7704 7.21C54.9104 7.35 54.9804 7.53 54.9804 7.75V10.45C54.9804 10.65 54.9104 10.82 54.7704 10.96C54.6304 11.1 54.4504 11.17 54.2304 11.17H48.8004V27.25C48.8004 27.47 48.7304 27.65 48.5904 27.79C48.4504 27.93 48.2704 28 48.0504 28H44.7204ZM56.4689 28C56.2689 28 56.0989 27.93 55.9589 27.79C55.8189 27.65 55.7489 27.47 55.7489 27.25V13.15C55.7489 12.95 55.8189 12.78 55.9589 12.64C56.0989 12.48 56.2689 12.4 56.4689 12.4H59.4089C59.6089 12.4 59.7789 12.48 59.9189 12.64C60.0789 12.78 60.1589 12.95 60.1589 13.15V14.35C60.6589 13.73 61.2689 13.25 61.9889 12.91C62.7289 12.57 63.5789 12.4 64.5389 12.4H65.8289C66.0289 12.4 66.1989 12.47 66.3389 12.61C66.4789 12.75 66.5489 12.93 66.5489 13.15V15.73C66.5489 15.95 66.4789 16.13 66.3389 16.27C66.1989 16.41 66.0289 16.48 65.8289 16.48H63.1889C62.3089 16.48 61.6189 16.73 61.1189 17.23C60.6189 17.71 60.3689 18.4 60.3689 19.3V27.25C60.3689 27.47 60.2989 27.65 60.1589 27.79C60.0189 27.93 59.8389 28 59.6189 28H56.4689ZM73.1124 28.3C72.0524 28.3 71.1024 28.1 70.2624 27.7C69.4224 27.28 68.7524 26.72 68.2524 26.02C67.7524 25.32 67.5024 24.54 67.5024 23.68C67.5024 22.26 68.0724 21.14 69.2124 20.32C70.3724 19.5 71.8924 18.94 73.7724 18.64L77.7024 18.07V17.53C77.7024 16.75 77.5224 16.15 77.1624 15.73C76.8024 15.31 76.1724 15.1 75.2724 15.1C74.6124 15.1 74.0824 15.23 73.6824 15.49C73.2824 15.75 72.9724 16.09 72.7524 16.51C72.5924 16.77 72.3624 16.9 72.0624 16.9H69.2124C68.9924 16.9 68.8224 16.84 68.7024 16.72C68.5824 16.58 68.5324 16.42 68.5524 16.24C68.5524 15.9 68.6824 15.5 68.9424 15.04C69.2024 14.58 69.6024 14.13 70.1424 13.69C70.6824 13.23 71.3724 12.85 72.2124 12.55C73.0524 12.25 74.0824 12.1 75.3024 12.1C76.5624 12.1 77.6424 12.25 78.5424 12.55C79.4424 12.85 80.1624 13.27 80.7024 13.81C81.2424 14.35 81.6424 14.98 81.9024 15.7C82.1624 16.4 82.2924 17.16 82.2924 17.98V27.25C82.2924 27.47 82.2224 27.65 82.0824 27.79C81.9424 27.93 81.7624 28 81.5424 28H78.6024C78.4024 28 78.2324 27.93 78.0924 27.79C77.9524 27.65 77.8824 27.47 77.8824 27.25V26.14C77.6224 26.52 77.2724 26.88 76.8324 27.22C76.3924 27.54 75.8624 27.8 75.2424 28C74.6424 28.2 73.9324 28.3 73.1124 28.3ZM74.3124 25.18C74.9724 25.18 75.5624 25.04 76.0824 24.76C76.6024 24.48 77.0124 24.05 77.3124 23.47C77.6124 22.89 77.7624 22.16 77.7624 21.28V20.77L74.9724 21.22C73.8924 21.4 73.1024 21.67 72.6024 22.03C72.1024 22.39 71.8524 22.83 71.8524 23.35C71.8524 23.73 71.9624 24.06 72.1824 24.34C72.4224 24.62 72.7324 24.83 73.1124 24.97C73.4924 25.11 73.8924 25.18 74.3124 25.18ZM86.6447 28C86.4447 28 86.2747 27.93 86.1347 27.79C85.9947 27.65 85.9247 27.47 85.9247 27.25V13.15C85.9247 12.93 85.9947 12.75 86.1347 12.61C86.2747 12.47 86.4447 12.4 86.6447 12.4H89.5847C89.8047 12.4 89.9847 12.47 90.1247 12.61C90.2647 12.75 90.3347 12.93 90.3347 13.15V14.32C90.8547 13.68 91.5247 13.15 92.3447 12.73C93.1647 12.31 94.1647 12.1 95.3447 12.1C96.5247 12.1 97.5547 12.37 98.4347 12.91C99.3347 13.43 100.035 14.2 100.535 15.22C101.055 16.22 101.315 17.44 101.315 18.88V27.25C101.315 27.47 101.235 27.65 101.075 27.79C100.935 27.93 100.765 28 100.565 28H97.3847C97.1647 28 96.9847 27.93 96.8447 27.79C96.7047 27.65 96.6347 27.47 96.6347 27.25V19.06C96.6347 18 96.3747 17.18 95.8547 16.6C95.3547 16 94.6147 15.7 93.6347 15.7C92.6947 15.7 91.9447 16 91.3847 16.6C90.8247 17.18 90.5447 18 90.5447 19.06V27.25C90.5447 27.47 90.4747 27.65 90.3347 27.79C90.1947 27.93 90.0247 28 89.8247 28H86.6447ZM111.059 28.3C109.819 28.3 108.749 28.16 107.849 27.88C106.969 27.58 106.249 27.22 105.689 26.8C105.149 26.38 104.739 25.96 104.459 25.54C104.199 25.1 104.059 24.73 104.039 24.43C104.019 24.21 104.089 24.03 104.249 23.89C104.409 23.75 104.569 23.68 104.729 23.68H107.639C107.699 23.68 107.759 23.69 107.819 23.71C107.879 23.73 107.939 23.78 107.999 23.86C108.259 24.04 108.529 24.25 108.809 24.49C109.089 24.71 109.409 24.9 109.769 25.06C110.149 25.22 110.619 25.3 111.179 25.3C111.839 25.3 112.399 25.17 112.859 24.91C113.319 24.63 113.549 24.24 113.549 23.74C113.549 23.38 113.439 23.08 113.219 22.84C113.019 22.6 112.629 22.38 112.049 22.18C111.469 21.98 110.609 21.76 109.469 21.52C108.389 21.28 107.469 20.96 106.709 20.56C105.949 20.16 105.379 19.66 104.999 19.06C104.619 18.44 104.429 17.7 104.429 16.84C104.429 16.06 104.669 15.31 105.149 14.59C105.649 13.87 106.379 13.28 107.339 12.82C108.299 12.34 109.499 12.1 110.939 12.1C112.039 12.1 112.999 12.24 113.819 12.52C114.659 12.78 115.359 13.12 115.919 13.54C116.479 13.94 116.899 14.36 117.179 14.8C117.479 15.22 117.639 15.59 117.659 15.91C117.679 16.11 117.619 16.28 117.479 16.42C117.339 16.56 117.179 16.63 116.999 16.63H114.329C114.229 16.63 114.139 16.62 114.059 16.6C113.979 16.56 113.909 16.51 113.849 16.45C113.609 16.29 113.359 16.11 113.099 15.91C112.859 15.69 112.569 15.5 112.229 15.34C111.889 15.18 111.449 15.1 110.909 15.1C110.249 15.1 109.739 15.25 109.379 15.55C109.039 15.83 108.869 16.19 108.869 16.63C108.869 16.91 108.959 17.17 109.139 17.41C109.319 17.65 109.689 17.87 110.249 18.07C110.809 18.27 111.659 18.48 112.799 18.7C114.159 18.94 115.239 19.3 116.039 19.78C116.839 20.26 117.409 20.82 117.749 21.46C118.109 22.08 118.289 22.75 118.289 23.47C118.289 24.41 118.009 25.25 117.449 25.99C116.889 26.71 116.069 27.28 114.989 27.7C113.929 28.1 112.619 28.3 111.059 28.3ZM121.889 28C121.689 28 121.519 27.93 121.379 27.79C121.239 27.65 121.169 27.47 121.169 27.25V13.15C121.169 12.93 121.239 12.75 121.379 12.61C121.519 12.47 121.689 12.4 121.889 12.4H124.889C125.109 12.4 125.289 12.47 125.429 12.61C125.569 12.75 125.639 12.93 125.639 13.15V27.25C125.639 27.47 125.569 27.65 125.429 27.79C125.289 27.93 125.109 28 124.889 28H121.889ZM121.799 10C121.599 10 121.429 9.93 121.289 9.79C121.149 9.65 121.079 9.47 121.079 9.25V6.85C121.079 6.63 121.149 6.45 121.289 6.31C121.429 6.15 121.599 6.07 121.799 6.07H124.949C125.169 6.07 125.349 6.15 125.489 6.31C125.649 6.45 125.729 6.63 125.729 6.85V9.25C125.729 9.47 125.649 9.65 125.489 9.79C125.349 9.93 125.169 10 124.949 10H121.799ZM136.901 28C135.661 28 134.601 27.8 133.721 27.4C132.841 26.98 132.171 26.34 131.711 25.48C131.271 24.62 131.051 23.54 131.051 22.24V15.94H128.711C128.491 15.94 128.311 15.87 128.171 15.73C128.031 15.59 127.961 15.41 127.961 15.19V13.15C127.961 12.93 128.031 12.75 128.171 12.61C128.311 12.47 128.491 12.4 128.711 12.4H131.051V7.45C131.051 7.23 131.121 7.05 131.261 6.91C131.421 6.77 131.601 6.7 131.801 6.7H134.741C134.961 6.7 135.141 6.77 135.281 6.91C135.421 7.05 135.491 7.23 135.491 7.45V12.4H139.241C139.441 12.4 139.611 12.47 139.751 12.61C139.891 12.75 139.961 12.93 139.961 13.15V15.19C139.961 15.41 139.891 15.59 139.751 15.73C139.611 15.87 139.441 15.94 139.241 15.94H135.491V21.88C135.491 22.64 135.621 23.24 135.881 23.68C136.161 24.1 136.641 24.31 137.321 24.31H139.511C139.711 24.31 139.881 24.38 140.021 24.52C140.161 24.66 140.231 24.83 140.231 25.03V27.25C140.231 27.47 140.161 27.65 140.021 27.79C139.881 27.93 139.711 28 139.511 28H136.901ZM143.929 28C143.709 28 143.529 27.93 143.389 27.79C143.249 27.65 143.179 27.47 143.179 27.25V7.75C143.179 7.53 143.249 7.35 143.389 7.21C143.529 7.07 143.709 7 143.929 7H157.309C157.529 7 157.709 7.07 157.849 7.21C157.989 7.35 158.059 7.53 158.059 7.75V10.3C158.059 10.52 157.989 10.7 157.849 10.84C157.709 10.98 157.529 11.05 157.309 11.05H147.859V16.12H156.709C156.929 16.12 157.109 16.19 157.249 16.33C157.389 16.47 157.459 16.65 157.459 16.87V19.42C157.459 19.62 157.389 19.79 157.249 19.93C157.109 20.07 156.929 20.14 156.709 20.14H147.859V27.25C147.859 27.47 147.789 27.65 147.649 27.79C147.509 27.93 147.329 28 147.109 28H143.929ZM161.88 28C161.66 28 161.48 27.93 161.34 27.79C161.2 27.65 161.13 27.47 161.13 27.25V7.45C161.13 7.23 161.2 7.05 161.34 6.91C161.48 6.77 161.66 6.7 161.88 6.7H164.88C165.08 6.7 165.25 6.77 165.39 6.91C165.53 7.05 165.6 7.23 165.6 7.45V27.25C165.6 27.47 165.53 27.65 165.39 27.79C165.25 27.93 165.08 28 164.88 28H161.88ZM176.532 28.3C174.872 28.3 173.482 28.03 172.362 27.49C171.242 26.93 170.382 26.14 169.782 25.12C169.202 24.1 168.882 22.91 168.822 21.55C168.802 21.15 168.792 20.7 168.792 20.2C168.792 19.68 168.802 19.23 168.822 18.85C168.882 17.47 169.222 16.28 169.842 15.28C170.462 14.26 171.332 13.48 172.452 12.94C173.572 12.38 174.932 12.1 176.532 12.1C178.112 12.1 179.462 12.38 180.582 12.94C181.702 13.48 182.572 14.26 183.192 15.28C183.812 16.28 184.152 17.47 184.212 18.85C184.252 19.23 184.272 19.68 184.272 20.2C184.272 20.7 184.252 21.15 184.212 21.55C184.152 22.91 183.822 24.1 183.222 25.12C182.642 26.14 181.792 26.93 180.672 27.49C179.552 28.03 178.172 28.3 176.532 28.3ZM176.532 25C177.512 25 178.252 24.7 178.752 24.1C179.252 23.48 179.522 22.58 179.562 21.4C179.582 21.1 179.592 20.7 179.592 20.2C179.592 19.7 179.582 19.3 179.562 19C179.522 17.84 179.252 16.95 178.752 16.33C178.252 15.71 177.512 15.4 176.532 15.4C175.552 15.4 174.802 15.71 174.282 16.33C173.782 16.95 173.512 17.84 173.472 19C173.452 19.3 173.442 19.7 173.442 20.2C173.442 20.7 173.452 21.1 173.472 21.4C173.512 22.58 173.782 23.48 174.282 24.1C174.802 24.7 175.552 25 176.532 25ZM191.26 28C190.98 28 190.76 27.93 190.6 27.79C190.46 27.65 190.35 27.47 190.27 27.25L185.98 13.36C185.94 13.26 185.92 13.16 185.92 13.06C185.92 12.88 185.98 12.73 186.1 12.61C186.24 12.47 186.4 12.4 186.58 12.4H189.22C189.48 12.4 189.68 12.47 189.82 12.61C189.96 12.75 190.05 12.88 190.09 13L192.82 22.27L195.73 13.06C195.77 12.92 195.86 12.78 196 12.64C196.16 12.48 196.38 12.4 196.66 12.4H198.37C198.65 12.4 198.86 12.48 199 12.64C199.16 12.78 199.26 12.92 199.3 13.06L202.21 22.27L204.94 13C204.96 12.88 205.04 12.75 205.18 12.61C205.34 12.47 205.54 12.4 205.78 12.4H208.42C208.6 12.4 208.75 12.47 208.87 12.61C209.01 12.73 209.08 12.88 209.08 13.06C209.08 13.16 209.07 13.26 209.05 13.36L204.73 27.25C204.67 27.47 204.56 27.65 204.4 27.79C204.26 27.93 204.05 28 203.77 28H201.46C201.18 28 200.96 27.93 200.8 27.79C200.64 27.65 200.52 27.47 200.44 27.25L197.53 18.37L194.56 27.25C194.5 27.47 194.39 27.65 194.23 27.79C194.07 27.93 193.85 28 193.57 28H191.26Z" fill="white"/>
<rect y="7.8916" width="9.78261" height="9.78261" transform="rotate(-30 0 7.8916)" fill="#FFB82B"/>
<rect x="4.13043" y="18" width="10" height="10" fill="#FFB82B"/>
<rect x="18.1304" y="5" width="10" height="10" fill="#FFB82B"/>
<rect x="18.1304" y="18" width="10" height="10" fill="#FFB82B"/>
</svg>
