<svg width="121" height="22" viewBox="0 0 121 22" fill="none" xmlns="http://www.w3.org/2000/svg">
<path d="M20.0104 0.125L1.85845 0.125C0.866598 0.125 0 0.838669 0 1.81887L0 20.0111C0 20.9967 0.866598 21.8749 1.85845 21.8749L20.0051 21.8749C21.0023 21.8749 21.7499 20.9908 21.7499 20.0111L21.7499 1.81887C21.7557 0.838669 21.0023 0.125 20.0104 0.125ZM6.74199 18.2546L3.62612 18.2546L3.62612 8.56669L6.74199 8.56669L6.74199 18.2546ZM5.29183 7.09371H5.2695C4.27231 7.09371 3.62661 6.3514 3.62661 5.42217C3.62661 4.47596 4.2893 3.75112 5.30883 3.75112C6.32835 3.75112 6.95221 4.47062 6.97454 5.42217C6.97406 6.3514 6.32835 7.09371 5.29183 7.09371ZM18.1296 18.2546L15.0138 18.2546L15.0138 12.9575C15.0138 11.6884 14.5603 10.8213 13.433 10.8213C12.5717 10.8213 12.062 11.4039 11.8353 11.9714C11.7503 12.1753 11.7275 12.453 11.7275 12.7366L11.7275 18.2546L8.61161 18.2546L8.61161 8.56669L11.7275 8.56669L11.7275 9.91489C12.1809 9.26919 12.8893 8.33997 14.5375 8.33997C16.5829 8.33997 18.1301 9.68817 18.1301 12.5948L18.1296 18.2546Z" fill="white"/>
<path d="M70.2211 6.74428C69.4156 7.09399 68.5635 7.32438 67.6915 7.42818C68.6079 6.89196 69.297 6.04007 69.6297 5.03229C68.7633 5.53855 67.817 5.89377 66.8313 6.08273C66.4162 5.64804 65.9171 5.30223 65.3641 5.06633C64.8111 4.83042 64.2159 4.70935 63.6147 4.71046C61.1804 4.71046 59.2104 6.65041 59.2104 9.04183C59.2087 9.37446 59.2468 9.70611 59.324 10.0297C57.5785 9.94791 55.8692 9.50294 54.3056 8.72324C52.742 7.94353 51.3585 6.84626 50.2436 5.50164C49.8524 6.16056 49.6456 6.91237 49.6446 7.6785C49.6446 9.1804 50.4288 10.508 51.6128 11.2857C50.9113 11.2691 50.2242 11.0836 49.6097 10.7449V10.7985C49.6097 12.8994 51.1306 14.6471 53.1435 15.045C52.765 15.1458 52.3749 15.1969 51.9832 15.1969C51.7052 15.1974 51.4279 15.1705 51.1552 15.1165C51.7148 16.8374 53.3435 18.089 55.2727 18.1247C53.7051 19.332 51.7804 19.9846 49.8012 19.9798C49.4499 19.9792 49.0989 19.9584 48.75 19.9172C50.7634 21.2019 53.1039 21.8815 55.4928 21.875C63.6053 21.875 68.0373 15.2729 68.0373 9.54693C68.0373 9.35919 68.0323 9.17146 68.0234 8.98819C68.8836 8.37673 69.6278 7.61686 70.2211 6.74428V6.74428Z" fill="white"/>
<path fill-rule="evenodd" clip-rule="evenodd" d="M120.221 11.233C120.221 5.28459 115.072 0.461426 108.721 0.461426C102.37 0.461426 97.2209 5.28459 97.2209 11.233C97.2209 16.6092 101.426 21.0654 106.924 21.8743V14.3476L104.003 14.3476V11.233L106.924 11.233V8.85988C106.924 6.16074 108.641 4.66859 111.268 4.66859C112.526 4.66859 113.843 4.87921 113.843 4.87921V7.53027L112.392 7.53027C110.964 7.53027 110.517 8.36026 110.517 9.21333V11.233L113.707 11.233L113.197 14.3476L110.518 14.3476L110.518 21.8752C116.016 21.0669 120.221 16.6106 120.221 11.233V11.233Z" fill="white"/>
</svg>
